<svg version="1.1" xmlns="http://www.w3.org/2000/svg" viewBox="-7.553475480883866 -14.690762404749078 16.893798764465977 32.585854762773536" fill="none" stroke="black" stroke-width="0.6%" vector-effect="non-scaling-stroke">
    <path d="M 1.92063 -12.55697 A 1.25 1.12471 0 0 1 3.93027 -11.66377 A 1.25 1.12471 0 0 1 1.43027 -11.66377 A 1.25 1.12471 0 0 1 1.92063 -12.55697 Z" />
    <path d="M 1.43027 -10.79103 A 1.25 1.12471 180 1 0 3.93027 -10.79103" />
    <path d="M 5.68124 -9.66842 L 5.26127 -12.56814 L 2.26031 -13.69076 L -0.3207 -11.91365 L 0.09927 -9.01392 L 3.10024 -7.89131 L 5.68124 -9.66842 Z" />
    <path d="M 5.68124 -2.32997 L 5.68124 -9.66842" />
    <path d="M -0.3207 -6.24085 L -0.3207 -11.91365" />
    <path d="M 0.09927 -3.34112 L -0.3207 -6.24085" />
    <path d="M 0.09927 -3.34112 L 0.09927 -9.01392" />
    <path d="M 3.10024 -2.2185 L 0.09927 -3.34112" />
    <path d="M 3.10024 -2.2185 L 3.10024 -7.89131" />
    <path d="M 4.78782 -3.38046 L 3.10024 -2.2185" />
    <path d="M -6.55347 4.51864 L -5.26127 13.44088 L -5.26127 0.3498 L 3.97247 3.80401 L 8.34032 0.79659 L 4.78782 -3.38046" />
    <path d="M -5.26127 13.44088 L 3.97247 16.89509 L 3.97247 3.80401" />
    <path d="M 3.97247 16.89509 L 8.34032 13.88767 L 8.34032 0.79659" />
    <path d="M -0.3207 -9.38707 L -2.18562 -11.57986 L -6.55347 -8.57244 L -5.26127 0.3498" />
    <path d="M -6.55347 4.51864 L -6.55347 -8.57244" />
    <path d="M 1.43027 -11.66377 L 1.43027 -10.79103" />
    <path d="M 3.93027 -11.66377 L 3.93027 -10.79103" />
</svg>