<svg version="1.1" xmlns="http://www.w3.org/2000/svg" viewBox="-10.819806058449469 -15.254708166515206 21.63961211689894 35.80402181419697" fill="none" stroke="black" stroke-width="0.6%" vector-effect="non-scaling-stroke">
    <path d="M 9.81981 13.03288 L 9.81981 -2.17215 L 6.54654 -10.31769 L 3.43693 -10.83358 L 2.29129 -13.68452 L -1.14564 -14.25471 L -3.43693 -11.97395 L -2.29129 -9.12301 L 1.14564 -8.55282 L 3.43693 -10.83358" />
    <path d="M 3.27327 19.54931 L 3.27327 4.34429 L 9.81981 -2.17215" />
    <path d="M 3.27327 19.54931 L 9.81981 13.03288" />
    <path d="M -9.81981 9.77466 L -6.54654 17.9202 L -6.54654 2.71518 L 3.27327 4.34429" />
    <path d="M -6.54654 17.9202 L 3.27327 19.54931" />
    <path d="M -3.43693 -11.78389 L -9.81981 -5.43036 L -6.54654 2.71518" />
    <path d="M -2.29129 -1.5205 L -3.43693 -4.37144 L -3.43693 -11.97395" />
    <path d="M 1.14564 -0.95031 L -2.29129 -1.5205 L -2.29129 -9.12301" />
    <path d="M 3.43693 -3.23107 L 1.14564 -0.95031 L 1.14564 -8.55282" />
    <path d="M -9.81981 9.77466 L -9.81981 -5.43036" />
    <path d="M 3.43693 -3.23107 L 3.43693 -10.83358" />
</svg>