<svg version="1.1" xmlns="http://www.w3.org/2000/svg" viewBox="-10.819674304268908 -14.245067220534432 21.639348608537816 34.79819189138178" fill="none" stroke="black" stroke-width="0.6%" vector-effect="non-scaling-stroke">
    <path d="M 3.27261 19.55312 L 9.81967 13.03803 L 9.81967 -2.17339 L 6.54706 -10.31795 L 3.00211 -10.9062" />
    <path d="M -6.54706 17.92366 L 3.27261 19.55312 L 3.27261 4.3417 L 9.81967 -2.17339" />
    <path d="M -9.81967 9.7791 L -6.54706 17.92366 L -6.54706 2.71224 L 3.27261 4.3417" />
    <path d="M -2.56708 -11.83034 L -3.27261 -11.94741 L -9.81967 -5.43232 L -6.54706 2.71224" />
    <path d="M -9.81967 9.7791 L -9.81967 -5.43232" />
    <path d="M -2.29147 -1.52257 L -3.43689 -4.37317 L -3.43689 -10.96478 L -2.29147 -8.11419 L 1.14541 -7.54388 L 3.43689 -9.82416 L 2.29147 -12.67475 L -1.14541 -13.24507 L -3.43689 -10.96478" />
    <path d="M 1.14541 -0.95226 L -2.29147 -1.52257 L -2.29147 -8.11419" />
    <path d="M 3.43689 -3.23254 L 1.14541 -0.95226 L 1.14541 -7.54388" />
    <path d="M 3.43689 -3.23254 L 3.43689 -9.82416" />
    <path d="M 0.94485 -9.68909 A 1.25 1.0774 0 0 1 -1.25 -10.39447" />
    <path d="M 1.25 -10.39447 A 1.25 1.0774 0 0 1 0.94485 -9.68909" />
    <path d="M 0.94485 -10.70319 A 1.25 1.0774 0 0 1 -1.25 -11.40857 L -1.25 -10.39447" />
    <path d="M -1.25 -11.40857 A 1.25 1.0774 0 0 1 1.25 -11.40857 L 1.25 -10.39447" />
    <path d="M 1.25 -11.40857 A 1.25 1.0774 0 0 1 0.94485 -10.70319" />
</svg>